<?xml version="1.0" encoding="UTF-8"?>
<svg id="Layer_1" data-name="Layer 1" xmlns="http://www.w3.org/2000/svg" viewBox="0 0 177 250">
  <defs>
    <style>
      .cls-1 {
        fill: #860d90;
      }
    </style>
  </defs>
  <path class="cls-1" d="m75.28,159.1c-30.26,0-54.89-24.63-54.89-54.9s24.63-54.9,54.89-54.9,54.91,24.63,54.91,54.9-24.63,54.9-54.91,54.9Zm0-89.86c-19.28,0-34.95,15.68-34.95,34.96s15.68,34.96,34.95,34.96,34.97-15.68,34.97-34.96-15.69-34.96-34.97-34.96Z"/>
  <path class="cls-1" d="m110.24,172.55c0,19.28-15.69,34.96-34.96,34.96s-34.95-15.68-34.95-34.96h-19.94c0,30.28,24.63,54.91,54.9,54.91s54.91-24.63,54.91-54.91h-19.94Z"/>
  <polygon class="cls-1" points="156.62 66 156.62 22.54 113.16 22.54 113.16 40.64 138.51 40.64 138.51 66 156.62 66"/>
</svg>