<svg version="1.2" xmlns="http://www.w3.org/2000/svg" viewBox="0 0 595 220" width="595" height="220">
	<title>Brackets_Logo_final-ai</title>
	<style>
		tspan { white-space:pre } 
		.s0 { fill: #1d1d54 } 
		.s1 { fill: #231f20 } 
		.s2 { fill: #3b127c } 
		.s3 { fill: #5c096d } 
		.s4 { fill: #a8149a } 
		.s5 { fill: #c42e87 } 
		.s6 { fill: #4d00ad } 
		.s7 { fill: #88169b } 
	</style>
	<g id="Dark BG">
		<g id="&lt;Group&gt;">
			<g id="&lt;Group&gt;">
			</g>
			<g id="&lt;Group&gt;">
			</g>
			<g id="&lt;Group&gt;">
				<g id="&lt;Group&gt;">
				</g>
			</g>
		</g>
	</g>
	<g id="Light BG">
		<g id="&lt;Group&gt;">
			<g id="&lt;Group&gt;">
				<g id="&lt;Group&gt;">
					<path id="&lt;Compound Path&gt;" fill-rule="evenodd" class="s0" d="m203.9 85.5q2.8 3.5 2.8 8.1 0 8.4-5.7 12.5-5.7 4.1-14 4.1h-17.9v-57.6h15.7q9 0 14 3.6 5 3.7 5 10.8 0 4.5-1.9 7.8-2 3.3-5.5 5.3 4.8 2 7.5 5.4zm-25.6-8.4h8q4 0 6-2.3 2-2.3 2-5.8 0-3.8-2.4-5.7-2.4-1.9-6.7-1.9h-6.9zm15.9 22.5q3-2 3-5.9 0-4.1-3.2-5.9-3.2-1.8-8-1.8h-7.7v15.6h8.3q4.7 0 7.6-2z"/>
					<path id="&lt;Compound Path&gt;" fill-rule="evenodd" class="s0" d="m248 110.2l-12.9-20.1h-9.3v20.1h-9.2v-57.6h16.2q9.6 0 15.4 4.9 5.8 4.9 5.8 13.6 0 5.3-2.2 9.8-2.3 4.6-7.1 7l14 22.3zm-22.2-28.9h8.2q5.6 0 8-3.1 2.5-3 2.5-6.8 0-2.2-0.9-4.5-1-2.2-3.3-3.9-2.3-1.6-6-1.6h-8.5z"/>
					<path id="&lt;Compound Path&gt;" fill-rule="evenodd" class="s0" d="m296.8 96.6h-21l-5.5 13.6h-9.1l25.4-60h0.6l25.5 60h-10.6zm-3.1-8l-7.2-18.2-7.5 18.2z"/>
					<path id="&lt;Compound Path&gt;" class="s0" d="m352.4 109.1q-4.5 1.7-9.8 1.7-8.9 0-15.6-3.9-6.7-3.9-10.3-10.6-3.6-6.6-3.6-14.5 0-8.6 3.6-15.4 3.6-6.8 10.1-10.6 6.4-3.9 14.7-3.9 5 0 9.3 1.4 4.3 1.3 7.7 3.4l-3.7 8.6q-6.4-4.5-13-4.5-5.1 0-9.5 2.7-4.4 2.7-7 7.5-2.6 4.7-2.6 10.3 0 5.9 2.4 10.6 2.4 4.7 6.9 7.4 4.5 2.6 10.3 2.6 4.2 0 7.6-1.2 3.3-1.3 5.6-3.3l3.9 8.2q-2.5 1.9-7 3.5z"/>
					<path id="&lt;Compound Path&gt;" class="s0" d="m378.4 77.6l1.3-1.9 21.6-23.1h11.9l-23.8 25.1 24.7 32.5h-11.7l-19.7-26.6-4.1 3.9v22.7h-9.3v-57.6h9.3v22z"/>
					<path id="&lt;Compound Path&gt;" class="s0" d="m459.6 52.6v8.8h-28.9v15.4h25.8v8.8h-25.8v15.7h30.1v8.9h-39.4v-57.6z"/>
					<path id="&lt;Compound Path&gt;" class="s0" d="m505.5 52.6v8.8h-14.8v48.8h-9.2v-48.8h-14.5v-8.8z"/>
					<path id="&lt;Compound Path&gt;" class="s0" d="m531.9 60.4q-4.3 0-6.8 1.9-2.5 1.9-2.5 5.2 0 3.3 3.1 5.4 3.2 2.2 8.8 4.3 4.3 1.5 7.3 3.5 3 1.9 5 5.2 2 3.4 2 8.4 0 4.6-2.3 8.3-2.3 3.8-6.6 6-4.4 2.2-10.3 2.2-5.2 0-10.3-1.6-5.1-1.7-9-4.5l4.1-7.2q2.9 2.2 6.9 3.7 4 1.4 7.4 1.4 4.2 0 7.4-2 3.1-2 3.1-6.2 0-3.3-2.6-5.5-2.7-2.2-7.4-4.1-4.9-1.8-8.2-3.6-3.2-1.7-5.5-4.9-2.4-3.2-2.4-8.1 0-7 4.8-11.3 4.8-4.3 12.6-4.7 5.7 0 10 1.3 4.3 1.4 8.1 3.7l-3.5 7.1q-7.5-3.9-13.2-3.9z"/>
				</g>
			</g>
			<g id="&lt;Group&gt;">
				<g id="&lt;Group&gt;">
					<path id="&lt;Compound Path&gt;" class="s0" d="m186.8 120.6v2h-8.9v28.3h-2.1v-28.3h-8.8v-2z"/>
					<path id="&lt;Compound Path&gt;" class="s0" d="m221.5 120.6v2h-16.6v12h14.9v2h-14.9v12.3h17.2v2h-19.3v-30.3z"/>
					<path id="&lt;Compound Path&gt;" class="s0" d="m256.9 150.6q-2.1 0.6-4.5 0.6-4.6 0-8.1-2-3.5-2.1-5.4-5.6-2-3.5-2-7.6 0-4.4 2-8 2-3.6 5.5-5.7 3.5-2 7.8-2 4.5 0 8.3 2.3l-0.9 1.9q-3.6-2.2-7.3-2.2-3.6 0-6.6 1.8-3 1.8-4.8 4.9-1.8 3.2-1.8 6.9 0 3.6 1.6 6.7 1.7 3 4.6 4.8 3 1.8 7 1.8 3.9 0 7.3-2.2l1 1.9q-1.6 1-3.7 1.7z"/>
					<path id="&lt;Compound Path&gt;" class="s0" d="m299.6 150.9h-2.1v-14.3h-18.3v14.3h-2.1v-30.3h2.1v14.1h18.3v-14.1h2.1z"/>
					<path id="&lt;Compound Path&gt;" class="s0" d="m343.4 120.6v31l-23.4-26.3 0.1 25.6h-2.1v-30.9h0.1l23.4 26.5-0.1-25.9z"/>
					<path id="&lt;Compound Path&gt;" fill-rule="evenodd" class="s0" d="m362 128q2.1-3.5 5.7-5.6 3.5-2.1 7.7-2.1 4.2 0 7.8 2.1 3.6 2.1 5.6 5.6 2.1 3.6 2.1 7.8 0 4.2-2.1 7.7-2 3.6-5.6 5.7-3.6 2-7.8 2-4.2 0-7.8-2-3.5-2-5.6-5.5-2-3.6-2-7.9 0-4.2 2-7.8zm1.9 14.5q1.8 3.1 4.8 4.9 3 1.8 6.7 1.8 3.6 0 6.7-1.8 3.1-1.8 4.9-4.9 1.8-3 1.8-6.7 0-3.7-1.8-6.8-1.8-3.1-4.9-4.9-3.1-1.8-6.7-1.8-3.7 0-6.7 1.8-3.1 1.9-4.9 5-1.7 3.1-1.7 6.7 0 3.7 1.8 6.7z"/>
					<path id="&lt;Compound Path&gt;" class="s0" d="m409.5 120.6v28.3h16.6v2h-18.7v-30.3z"/>
					<path id="&lt;Compound Path&gt;" fill-rule="evenodd" class="s0" d="m441.9 128q2.1-3.5 5.6-5.6 3.6-2.1 7.7-2.1 4.2 0 7.8 2.1 3.6 2.1 5.7 5.6 2.1 3.6 2.1 7.8 0 4.2-2.1 7.7-2.1 3.6-5.7 5.7-3.6 2-7.8 2-4.2 0-7.7-2-3.6-2-5.6-5.5-2.1-3.6-2.1-7.9 0-4.2 2.1-7.8zm1.8 14.5q1.8 3.1 4.8 4.9 3.1 1.8 6.7 1.8 3.7 0 6.8-1.8 3.1-1.8 4.8-4.9 1.8-3 1.8-6.7 0-3.7-1.8-6.8-1.8-3.1-4.9-4.9-3-1.8-6.7-1.8-3.6 0-6.7 1.8-3.1 1.9-4.8 5-1.8 3.1-1.8 6.7 0 3.7 1.8 6.7z"/>
					<path id="&lt;Compound Path&gt;" class="s0" d="m506 150.5q-2.7 0.7-5 0.7-4.7 0-8.2-2-3.6-2-5.5-5.4-1.9-3.5-1.9-7.8 0-4.5 2.1-8.1 2-3.6 5.6-5.6 3.5-2 7.8-2 4.5 0 8.3 2.2l-0.8 1.8q-1.5-0.8-3.5-1.4-2-0.6-3.8-0.6-3.8 0-6.9 1.8-3.2 1.8-4.9 4.9-1.8 3.1-1.8 6.9 0 3.8 1.7 6.8 1.7 3 4.7 4.8 3.1 1.7 7 1.7 1.9 0 3.8-0.5 2-0.4 3.4-1.2v-8.4h-6.9v-2h9v11.7q-1.6 1-4.2 1.7z"/>
					<path id="&lt;Compound Path&gt;" class="s0" d="m548.1 120.6l-11.3 19.5v10.8h-2.1v-10.8l-11.3-19.5h2.5l9.9 17.1 9.8-17.1z"/>
				</g>
			</g>
			<g id="&lt;Group&gt;">
				<path id="&lt;Path&gt;" class="s0" d="m137.2 158.9h-87.4c-1.8 0-3.4-1.5-3.4-3.4v-7.4c0-1.9 1.6-3.4 3.4-3.4h87.4c1.9 0 3.4 1.5 3.4 3.4v7.4c0 1.9-1.5 3.4-3.4 3.4z"/>
				<g id="&lt;Group&gt;">
					<path id="&lt;Compound Path&gt;" fill-rule="evenodd" class="s1" d="m141.9 83.7c0 26.7-21.6 48.4-48.4 48.4-26.7 0-48.4-21.7-48.4-48.4 0-26.7 21.7-48.4 48.4-48.4 26.8 0 48.4 21.7 48.4 48.4zm-24.2 0c0-13.4-10.8-24.2-24.2-24.2-13.3 0-24.2 10.8-24.2 24.2 0 13.3 10.9 24.2 24.2 24.2 13.4 0 24.2-10.9 24.2-24.2z"/>
					<path id="&lt;Path&gt;" class="s2" d="m141.9 83q0-0.1 0-0.1c-0.1-7.5-2-15-5.5-21.7q-0.1-0.2-0.2-0.3-0.1-0.3-0.3-0.5-0.1-0.2-0.1-0.4-0.3-0.4-0.6-0.9-0.1-0.1-0.2-0.3-0.1-0.3-0.3-0.5-0.1-0.2-0.2-0.4-0.2-0.2-0.3-0.5-0.1-0.1-0.2-0.2-0.3-0.5-0.7-1 0-0.1-0.1-0.2-0.2-0.3-0.4-0.6-0.1-0.1-0.1-0.1-2.2-3.1-5-5.8c-13.2-13.2-32.1-17.2-48.8-11.9 6-0.7 21.2 9.3 36.3 24.5 14.8 14.8 24.8 29.6 24.5 35.8q0 0.1 0 0.2c1.3-4.2 2-8.5 2.2-12.8q0 0 0 0 0-0.4 0-0.8 0 0 0-0.1 0-0.7 0-1.4z"/>
					<path id="&lt;Path&gt;" class="s3" d="m72 105.4c-14.5-14.5-24.3-28.9-24.6-35.4q0-0.6 0.1-1.1c-1.1 3.3-1.8 6.8-2.1 10.3q-0.1 0.1-0.1 0.2 0 0.5 0 1-0.1 0.3-0.1 0.6 0 0.2 0 0.4 0 0.4 0 0.8 0 0.2 0 0.3-0.1 0.5-0.1 1.1 0 0.1 0 0.2 0 0.6 0.1 1.1 0 0 0 0 0 0.6 0 1.1 0 0.2 0 0.3 0 0.5 0.1 1 0 0.1 0 0.3 0 0.4 0.1 0.8 0 0.2 0 0.5 0.1 0.3 0.1 0.6 0 0.4 0.1 0.8 0 0.2 0.1 0.5 0 0.3 0 0.5 0.1 0.3 0.1 0.5 0.1 0.5 0.2 1 0 0.2 0.1 0.4 0 0.3 0.1 0.5 0 0.3 0.1 0.5 0.1 0.4 0.2 0.8 0 0.3 0.1 0.6 0.1 0.2 0.1 0.4 0.1 0.4 0.2 0.7 0.1 0.1 0.1 0.3 0.1 0.5 0.3 1 0 0.1 0.1 0.2 0.1 0.5 0.3 1 0 0 0 0c6.5 19.1 24.5 32.9 45.8 32.9 5 0 9.9-0.8 14.4-2.2-6.2 0.3-21.1-9.7-35.9-24.5z"/>
					<path id="&lt;Path&gt;" class="s4" d="m70.2 76.6q0.4-1.3 1-2.5c-7.9-9.9-12.7-18.3-12.6-22.5q0-1.1 0.5-1.9c-5.2 5.3-9 11.5-11.2 18q0.1-0.3 0.3-0.5c2.7-2.7 11.4 1.3 22 9.4z"/>
					<path id="&lt;Path&gt;" class="s4" d="m103.2 106.1q-1.3 0.5-2.6 0.9c6.5 8.4 10.3 15.7 10.3 19.6q0 1.6-0.8 2.5-0.1 0.1-0.2 0.1c6.5-2.3 12.6-6.1 17.8-11.3-2.7 2.8-12.5-2.2-24.5-11.8z"/>
					<path id="&lt;Path&gt;" class="s5" d="m83.9 61.3c-12-9.6-21.8-14.6-24.6-11.8q-0.7 0.7-0.7 2.1c-0.1 4.2 4.7 12.6 12.6 22.4 2.4-5.7 7-10.2 12.7-12.7z"/>
					<path id="&lt;Path&gt;" class="s5" d="m115.9 93.3c-2.4 5.7-7 10.3-12.7 12.8 12 9.6 21.8 14.5 24.5 11.8q0.8-0.8 0.8-2.2c0-4.2-4.7-12.5-12.6-22.4z"/>
					<path id="&lt;Path&gt;" class="s6" d="m59.6 49.2q-0.1 0.1-0.3 0.2-0.1 0.2-0.2 0.3 0.1-0.1 0.2-0.2 0.2-0.2 0.3-0.3z"/>
					<path id="&lt;Path&gt;" class="s7" d="m110.9 126.6c0-4-3.8-11.2-10.3-19.6-2.2 0.7-4.6 1.1-7.1 1.1-13.4 0-24.3-11-24.3-24.4 0-2.5 0.3-4.8 1-7-10.6-8.2-19.3-12.2-22-9.5q-0.2 0.3-0.4 0.6 0 0 0.1-0.1-0.1 0-0.1 0-0.2 0.6-0.3 1.1 0 0 0 0.1 0-0.1 0-0.1-0.1 0.5-0.1 1.2c0.3 6.5 10.2 20.9 24.6 35.3 15 15 29.9 25 36.1 24.5q0.8-0.2 1.7-0.5 0.2-0.1 0.3-0.3 0.8-0.8 0.8-2.4z"/>
					<path id="&lt;Path&gt;" class="s6" d="m115.2 62.1c-15.4-15.4-30.8-25.5-36.6-24.5q0.2 0 0.3 0 0 0-0.1 0-0.6 0.2-1.3 0.4 0 0 0 0 0.1 0 0.2 0-0.4 0.1-0.6 0.4-0.9 0.8-0.9 2.4c0 4 3.9 11.2 10.3 19.6 2.2-0.7 4.6-1.1 7-1.1 13.5 0 24.4 10.9 24.4 24.4 0 2.4-0.4 4.8-1 7 10.6 8.2 19.3 12.2 22 9.5q0.1-0.1 0.2-0.2 0.3-0.9 0.6-1.9 0-0.1 0-0.2c0.2-6.3-9.7-21-24.5-35.8z"/>
				</g>
			</g>
		</g>
	</g>
	<g id="GrayScale">
		<g id="&lt;Group&gt;">
			<g id="&lt;Group&gt;">
			</g>
			<g id="&lt;Group&gt;">
			</g>
			<g id="&lt;Group&gt;">
				<g id="&lt;Group&gt;">
					<g id="&lt;Group&gt;">
					</g>
				</g>
				<g id="&lt;Group&gt;">
				</g>
			</g>
		</g>
	</g>
	<g id="WhiteScale">
		<g id="&lt;Group&gt;">
			<g id="&lt;Group&gt;">
			</g>
			<g id="&lt;Group&gt;">
			</g>
			<g id="&lt;Group&gt;">
				<g id="&lt;Group&gt;">
					<g id="&lt;Group&gt;">
					</g>
				</g>
				<g id="&lt;Group&gt;">
				</g>
			</g>
		</g>
	</g>
</svg>